<?xml version="1.0" encoding="UTF-8"?>
<!DOCTYPE svg PUBLIC "-//W3C//DTD SVG 1.1//EN" "http://www.w3.org/Graphics/SVG/1.1/DTD/svg11.dtd">
<!-- Creator: CorelDRAW -->
<svg xmlns="http://www.w3.org/2000/svg" xml:space="preserve" width="135.836mm" height="53.9096mm" version="1.1" style="shape-rendering:geometricPrecision; text-rendering:geometricPrecision; image-rendering:optimizeQuality; fill-rule:evenodd; clip-rule:evenodd"
viewBox="0 0 12896.8 5118.38"
 xmlns:xlink="http://www.w3.org/1999/xlink"
 xmlns:xodm="http://www.corel.com/coreldraw/odm/2003">
 <defs>
  <style type="text/css">
   <![CDATA[
    .fil0 {fill:#373435}
   ]]>
  </style>
 </defs>
 <g id="Capa_x0020_1">
  <metadata id="CorelCorpID_0Corel-Layer"/>
  <g id="_2421611422464">
   <path class="fil0" d="M-0 2545.07l432.95 -9.24 0.63 -1806.32c114.54,126.78 591.05,1503.8 611.84,1587.13 567.95,24.92 443.43,39.47 600.25,-379.78 51.16,-136.76 102.68,-268.34 155.65,-414.29 77.67,-213.97 208.69,-630.12 311.82,-811.56l14.66 1825.71 432.75 7.23 0 -2542.62 -608.07 0.65 -655.84 1754.42c-19.59,-12.04 -27.43,-31.84 -29.63,-26.62l-166.49 -409.18c-58.36,-153.38 -105.66,-288.52 -162.62,-440.33 -97.78,-260.6 -260.04,-630.54 -318.67,-879.47l-609.36 -0.8 -9.87 2545.03 0 0.05z"/>
   <path class="fil0" d="M7780.48 703.43c-513.49,1.27 -917.09,413.49 -594.59,1071.55l-96.88 146.17c-87.07,173.81 -68.13,351.23 40.44,505.08l58.9 85.64c-8.29,9.87 -373.29,247.55 -28.83,620.88 310.44,336.42 1043.25,338.89 1342.44,33.42 172.67,-176.31 396.67,-769.7 -505.62,-903.3 -205.64,-30.46 -678.74,-17.19 -549.72,-246.95 31.37,-32.91 77.18,-11.84 151.74,3.18 645.3,129.93 1085.12,-313.45 863.35,-944.96 66.75,-61.46 166.03,-141.54 243.2,-212.03 -81.05,-108.55 -112.57,-162.06 -221.03,-263.93 -120.52,60.88 -187.83,189.9 -296.11,189.54 -72.6,-0.22 -223.28,-84.69 -407.27,-84.25l-0.02 -0.03zm-56.31 362.91c-163.74,52.54 -254.57,162.02 -203.16,397.41 35.51,162.63 178.53,258.47 382.62,203.24 314.25,-85.04 229.69,-731.92 -179.46,-600.64zm497.29 1698.45c-190.75,-97.42 -491.42,-105.82 -747.27,-147.71 -120.12,211.55 -82.54,334.84 195.71,406.58 262.03,67.56 555.92,38.47 551.56,-258.85l0.01 -0.01z"/>
   <path class="fil0" d="M3066.58 1105.1c74.39,84.04 207.46,196.09 326.18,230.04 424.05,-409.81 740.33,-220.51 767.61,133.26 -533.7,31.67 -1349.27,-63.18 -1154.26,694.12 104.19,404.57 737.56,628.47 1180.39,160.77l36.63 212.94 357.35 10.33c0.02,-515.47 108.37,-1355.23 -219.06,-1639.56 -297.45,-258.29 -917.29,-304.89 -1294.81,198.1l-0.03 0zm1081.67 685.29c-128.85,-7.62 -411.38,-16.81 -524.87,12.86 -149.12,39.01 -268.18,200.57 -131.26,338.66 198.13,199.86 661.95,-21.28 656.13,-351.53z"/>
   <path class="fil0" d="M5537.57 904.52c-6.37,-6.48 -11.56,-29.01 -13.94,-23.44 -24.47,57.63 43.23,-90.17 -151.73,-112.94 -68.95,-8.07 -240.02,2.27 -319.86,2.27l0 1774.66 434.09 0c-2.99,-677.06 -134.56,-1394.53 356.14,-1434.61 533.53,-43.56 392.34,749.7 392.34,1433.29l428.04 -2.84c-0.1,-369.81 48.38,-1202.25 -74.86,-1481.91 -178.34,-404.7 -777.25,-494.31 -1050.21,-154.48l-0.01 0z"/>
   <path class="fil0" d="M11766.27 1936.38c-116.55,42.69 -227.37,90.76 -323.61,147.55 80.73,241.62 259.4,411.3 543.38,476.05 835.08,190.43 1153.56,-671.8 709.57,-977.93 -314.4,-216.79 -637.63,-124.4 -711.89,-376.47 172.76,-294.94 444.2,-68.22 586.39,78.97l326.67 -168.81c-123.06,-277.9 -455.74,-445.91 -857.4,-374.58 -308.05,54.71 -609.58,343.6 -444.96,736.94 143.2,342.18 678.6,279.25 809.89,435.31 201.88,239.97 -274.87,402.5 -490.01,215.58l-148.07 -192.61 0.04 0z"/>
   <path class="fil0" d="M12038.95 5015.25c148.51,-381.4 -28.73,-745.96 397.23,-862.67 79.3,188.36 -90.44,588.93 -104.28,814.98 110.63,46.2 190.05,86.06 337.8,84.49 100.5,-332.22 375.48,-1187.05 -74.54,-1266.44 -170.9,-30.15 -276.09,130.62 -356.64,198.39l151.41 -597.91c-124.5,-33.06 -225.76,-71.03 -359.06,-68.64 -94.16,315.78 -172.88,608.78 -238.87,963.1 -29.71,159.55 -67.56,362.5 -80.45,521.89 -6.15,76.05 -42.7,228.69 202.56,242.1 37.84,2.06 62.62,13.04 124.84,-29.27l-0.01 -0.01z"/>
   <path class="fil0" d="M10203.35 4836.32c64.67,136.61 16.2,188.17 204.73,211.53 185.94,23.03 140.28,-65.57 153.99,-257.57 20.05,-280.76 110.92,-539.72 129.32,-779.59 -407.69,-279.22 -885.95,-380.52 -1075.79,201.61 -79.36,243.35 -91.76,526.06 51.44,699.61 240.43,291.36 375.69,106.91 536.32,-75.58l-0.01 -0.01zm-276.91 -140.6c136.02,-7.15 233.32,-70.89 281.58,-191.22 43.02,-107.23 84.79,-298.17 51.02,-386.65 -278.7,-119.98 -350.92,347.03 -332.61,577.87z"/>
   <path class="fil0" d="M9332.51 4526.02c-202.96,60.12 -194.92,205.57 -480.23,157.15 -309.47,-275.16 48.97,-1130.36 293.98,-959.49 94.86,102.9 47.76,183.13 19.23,322.13 124.65,39.79 199.13,21.93 330.77,6.78 67.32,-177.75 147.67,-322.11 -4.04,-471.81 -841.42,-830.33 -1710.75,1099.51 -707.5,1443.4 198.47,68.04 368.32,9.27 514.39,-90.34 190.6,-130 164.22,-216.24 33.4,-407.82l0 0.01z"/>
   <path class="fil0" d="M11311.02 4566.2c-205.05,35.41 -282.64,-56.5 -456.68,-109.02l-91.34 258.84c172.76,139.29 200.82,55.74 232.64,206.4 11.84,56.01 -15.44,43.04 16.02,151.81l174.14 44.17c135.27,-347.3 -29.25,-119.02 242.98,-298.92 107.45,-71.01 183.36,-213.76 195.07,-338.04 37.26,-395.6 -438.23,-315.71 -452.42,-588.97 163.46,-73.93 283.58,27.84 465.51,36.09l71.6 -241.64 -202.02 -113.4c1.49,-44.21 30.95,-125.84 -0.34,-202.63l-174.12 -37.66c-198.23,309.54 79.65,76.85 -263.53,255.98 -92.91,48.49 -200.9,175.25 -214.21,330.92 -36.9,431.52 404.07,329.68 456.7,646.06l0 0.04z"/>
   <path class="fil0" d="M10812.24 2099.59c0,80.88 40.46,60.47 97.73,87.96 -23.47,35.05 -43.62,71.16 -66.63,109.3 -52.41,86.74 -69.71,103.39 -144.4,178.11 -55.59,55.57 -67.83,70.27 -128.83,105.74 -38.58,22.43 -70.72,46.09 -109.57,66.34 -40.09,20.91 -85.58,41.06 -128.54,57.16 -233.37,87.48 -526.15,62.63 -756.45,-52.02 -9.48,-4.74 -10.63,-4.59 -20.09,-9.24 -198.3,-97.93 -372.68,-296.78 -456.46,-511.05l-61.91 -192.19c-32.64,-67.26 -120.83,-65.9 -156,-1.81 -33.42,60.86 37.84,216.79 62.08,291.21 18.25,56.01 51.33,121.49 87.96,166.15 144.64,176.27 88,145.86 277.43,299.18 15.35,12.43 20.85,20.14 36,32.41l169.89 93.99c259.57,141.68 662.49,146.82 926.26,31.17 125,-54.79 216.25,-102.09 319.7,-188.51l156.51 -156.23c75.29,-88.95 106.81,-161.99 159.22,-261.02 101.31,8.44 145,104.56 115.95,-184.36 -5.76,-57.45 -24.47,-159.25 -37.76,-216.34 -94.32,-22.58 -93.08,11.47 -197.72,115.02 -29.81,29.51 -144.33,103.72 -144.33,139.07l-0.04 -0.03z"/>
   <path class="fil0" d="M8945.59 1288.43c-90.71,-21.13 -38.91,-28.02 -117.27,-9.78 -16.25,69.77 18.66,249.69 33.12,338.28 26.08,159.77 122.96,44.85 255.43,-79.04 163.65,-153.03 113.29,-133.33 4.65,-190.81 78.97,-149.26 56.28,-127.62 167.37,-243.08 129.33,-134.42 85.69,-100.21 248.74,-200.82 261.75,-161.52 632.12,-162.08 909.89,-22.08 51.61,26.01 92.01,52.24 143.25,81.53 37.36,21.36 136.8,129.79 176.33,165.71l51.73 65.55c16.49,30.25 26.41,47.71 42.73,74.54 49.85,81.96 75.58,137.91 106.01,236.04 22.21,71.57 7.32,96.58 49.75,126.17 77.93,54.36 168.04,-10.76 130.89,-140.41 -22.78,-79.53 -44.4,-146.95 -78.55,-214.91 -92.35,-183.73 -218.41,-351.92 -392.17,-467.86l-190.52 -102.68c-40.94,-17.49 -57.69,-28.02 -103.44,-43.14 -40.37,-13.34 -62.84,-21 -114.39,-32.23 -172.17,-37.49 -273.72,-49.49 -451.41,-12.94 -118.58,24.4 -216.4,50.92 -327.02,112.78 -177.48,99.24 -41.26,4.22 -203.1,129.18l-84.13 72.24c-13.12,12.12 -18.04,16.04 -30.74,27.87 -77.07,71.85 -176.13,233.35 -227.2,329.88l0.05 0.01z"/>
   <path class="fil0" d="M10089.04 2158.23l0 -302.96c170.66,39.76 156.36,99.2 156.36,185.7 0,39.96 -72.68,110.32 -156.36,117.27l0 -0.02zm-302.97 -645.02c0,-65.97 70.44,-121.36 136.82,-136.82l0 273.66c-66.39,-15.48 -136.82,-70.86 -136.82,-136.82l0 -0.01zm136.83 -302.96c-73.54,6.12 -147.71,50.27 -197.72,85.69 -107.38,76.01 -150.52,303.75 -0.44,435 33.3,29.12 142.29,84 198.18,85.25l0 342.06c-143.94,-33.52 -105.56,-156.93 -243.33,-86.96 -67.89,34.48 -39.66,80.33 4.82,130.02 50.23,56.11 163.49,116.86 238.51,123.08 0,81.12 -39.08,172.6 156.36,127.05 4.98,-60.01 9.78,-28.38 9.78,-127.05 107.61,-2.38 244.39,-87.31 290.2,-178.92 77.54,-155.11 27.48,-347.35 -166.86,-423.3 -25.79,-10.08 -97.34,-30.88 -123.33,-33.04l0 -302.96c78.71,6.54 78.48,54.91 127.32,79.08 73.37,36.29 260.19,-100.42 -46.07,-228.76 -29.64,-12.43 -56.89,-14.53 -81.27,-26.23 0,-134.98 -5.76,-117.27 -127.05,-117.27 -52.29,0 -39.08,64.77 -39.08,117.27l-0.01 -0.01z"/>
  </g>
 </g>
</svg>
