<?xml version="1.0" encoding="UTF-8"?>
<!DOCTYPE svg PUBLIC "-//W3C//DTD SVG 1.1//EN" "http://www.w3.org/Graphics/SVG/1.1/DTD/svg11.dtd">
<!-- Creator: CorelDRAW -->
<svg xmlns="http://www.w3.org/2000/svg" xml:space="preserve" width="135.837mm" height="53.9093mm" version="1.1" style="shape-rendering:geometricPrecision; text-rendering:geometricPrecision; image-rendering:optimizeQuality; fill-rule:evenodd; clip-rule:evenodd"
viewBox="0 0 7626.3 3026.64"
 xmlns:xlink="http://www.w3.org/1999/xlink"
 xmlns:xodm="http://www.corel.com/coreldraw/odm/2003">
 <defs>
  <style type="text/css">
   <![CDATA[
    .fil0 {fill:black}
    .fil1 {fill:#009D1A}
    .fil2 {fill:#010101}
    .fil3 {fill:#57D555}
   ]]>
  </style>
 </defs>
 <g id="Capa_x0020_1">
  <metadata id="CorelCorpID_0Corel-Layer"/>
  <path class="fil0" d="M-0 1504.95l256.02 -5.46 0.37 -1068.13c67.73,74.97 349.51,889.24 361.8,938.52 335.85,14.74 262.21,23.34 354.95,-224.57 30.25,-80.87 60.72,-158.68 92.04,-244.98 45.93,-126.53 123.4,-372.61 184.39,-479.9l8.67 1079.6 255.9 4.27 0 -1503.53 -359.57 0.38 -387.82 1037.44c-11.58,-7.12 -16.22,-18.83 -17.52,-15.74l-98.45 -241.96c-34.51,-90.7 -62.48,-170.61 -96.16,-260.38 -57.82,-154.1 -153.77,-372.86 -188.44,-520.06l-360.33 -0.47 -5.84 1504.95z"/>
  <path class="fil0" d="M4600.85 415.93c-303.65,0.75 -542.31,244.51 -351.6,633.64l-57.29 86.43c-51.49,102.78 -40.29,207.69 23.91,298.67l34.83 50.64c-4.9,5.84 -220.74,146.39 -17.05,367.15 183.57,198.94 616.91,200.4 793.83,19.76 102.11,-104.26 234.56,-455.15 -298.99,-534.15 -121.6,-18.01 -401.37,-10.17 -325.07,-146.03 18.55,-19.46 45.64,-7 89.73,1.88 381.59,76.83 641.67,-185.35 510.53,-558.78 39.47,-36.34 98.18,-83.7 143.81,-125.38 -47.93,-64.19 -66.57,-95.83 -130.7,-156.07 -71.27,36 -111.07,112.29 -175.1,112.08 -42.93,-0.13 -132.03,-50.08 -240.83,-49.82zm-33.3 214.6c-96.83,31.07 -150.54,95.81 -120.14,235 21,96.17 105.57,152.84 226.26,120.18 185.83,-50.29 135.82,-432.81 -106.12,-355.18zm294.06 1004.35c-112.8,-57.61 -290.59,-62.58 -441.89,-87.35 -71.03,125.1 -48.81,198 115.73,240.42 154.95,39.95 328.74,22.75 326.16,-153.07z"/>
  <path class="fil0" d="M1813.37 653.45c43.99,49.7 122.68,115.95 192.88,136.03 250.75,-242.33 437.78,-130.39 453.91,78.8 -315.59,18.73 -797.87,-37.36 -682.55,410.45 61.61,239.24 436.14,371.64 698,95.07l21.66 125.92 211.31 6.11c0.01,-304.81 64.08,-801.39 -129.54,-969.52 -175.89,-152.73 -542.42,-180.29 -765.66,117.14zm639.62 405.23c-76.19,-4.51 -243.26,-9.94 -310.37,7.61 -88.18,23.07 -158.58,118.6 -77.62,200.26 117.16,118.18 391.43,-12.58 387.99,-207.87z"/>
  <path class="fil0" d="M3274.54 534.84c-3.77,-3.83 -6.84,-17.15 -8.24,-13.86 -14.47,34.08 25.56,-53.32 -89.72,-66.78 -40.77,-4.77 -141.93,1.34 -189.14,1.34l0 1049.41 256.69 0c-1.77,-400.37 -79.57,-824.63 210.6,-848.33 315.49,-25.76 232,443.32 232,847.55l253.11 -1.68c-0.06,-218.68 28.61,-710.93 -44.27,-876.3 -105.46,-239.31 -459.61,-292.3 -621.02,-91.35z"/>
  <path class="fil0" d="M6957.77 1145.01c-68.92,25.24 -134.45,53.67 -191.36,87.25 47.74,142.88 153.39,243.21 321.32,281.5 493.81,112.61 682.14,-397.26 419.59,-578.28 -185.91,-128.19 -377.05,-73.56 -420.96,-222.62 102.16,-174.41 262.67,-40.34 346.75,46.7l193.18 -99.82c-72.77,-164.33 -269.5,-263.68 -507.01,-221.5 -182.16,32.35 -360.46,203.18 -263.12,435.78 84.68,202.34 401.28,165.13 478.91,257.41 119.38,141.9 -162.54,238.01 -289.76,127.48l-87.56 -113.9z"/>
  <path class="fil1" d="M7119.01 2965.65c87.82,-225.53 -16.99,-441.11 234.89,-510.12 46.89,111.38 -53.48,348.25 -61.66,481.92 65.42,27.32 112.38,50.89 199.75,49.96 59.43,-196.45 222.04,-701.94 -44.08,-748.88 -101.06,-17.83 -163.26,77.24 -210.89,117.31l89.53 -353.56c-73.62,-19.55 -133.5,-42 -212.32,-40.59 -55.68,186.73 -102.23,359.99 -141.25,569.51 -17.57,94.35 -39.95,214.36 -47.57,308.61 -3.64,44.97 -25.25,135.23 119.78,143.16 22.38,1.22 37.03,7.71 73.82,-17.31z"/>
  <path class="fil1" d="M6033.57 2859.84c38.24,80.78 9.58,111.27 121.06,125.08 109.95,13.62 82.95,-38.77 91.06,-152.31 11.86,-166.02 65.59,-319.15 76.47,-461 -241.08,-165.11 -523.89,-225.01 -636.15,119.22 -46.93,143.9 -54.26,311.07 30.42,413.7 142.17,172.29 222.16,63.22 317.14,-44.69zm-163.75 -83.14c80.43,-4.23 137.97,-41.92 166.51,-113.07 25.44,-63.41 50.14,-176.32 30.17,-228.64 -164.8,-70.95 -207.51,205.21 -196.68,341.71z"/>
  <path class="fil1" d="M5518.61 2676.35c-120.02,35.55 -115.26,121.56 -283.97,92.93 -183,-162.71 28.96,-668.42 173.84,-567.38 56.09,60.85 28.24,108.29 11.37,190.48 73.71,23.53 117.75,12.97 195.6,4.01 39.81,-105.11 87.32,-190.47 -2.39,-279 -497.56,-491 -1011.62,650.17 -418.37,853.53 117.36,40.23 217.8,5.48 304.17,-53.42 112.71,-76.87 97.11,-127.87 19.75,-241.16z"/>
  <path class="fil1" d="M6688.56 2700.11c-121.25,20.94 -167.13,-33.41 -270.05,-64.47l-54.01 153.06c102.16,82.37 118.75,32.96 137.57,122.05 7,33.12 -9.13,25.45 9.47,89.77l102.97 26.12c79.99,-205.37 -17.3,-70.38 143.68,-176.76 63.54,-41.99 108.43,-126.4 115.35,-199.89 22.03,-233.93 -259.14,-186.69 -267.53,-348.28 96.66,-43.72 167.69,16.46 275.27,21.34l42.34 -142.89 -119.46 -67.06c0.88,-26.14 18.3,-74.41 -0.2,-119.82l-102.96 -22.27c-117.22,183.04 47.1,45.44 -155.83,151.37 -54.94,28.67 -118.8,103.63 -126.67,195.68 -21.82,255.17 238.94,194.95 270.06,382.04z"/>
  <path class="fil2" d="M6393.62 1241.52c0,47.83 23.92,35.76 57.79,52.01 -13.88,20.73 -25.79,42.08 -39.4,64.63 -30.99,51.29 -41.22,61.14 -85.39,105.32 -32.87,32.86 -40.11,41.55 -76.18,62.53 -22.81,13.26 -41.82,27.25 -64.79,39.23 -23.71,12.36 -50.61,24.28 -76.01,33.8 -138,51.73 -311.13,37.04 -447.31,-30.76 -5.61,-2.8 -6.29,-2.71 -11.88,-5.46 -117.26,-57.92 -220.38,-175.5 -269.92,-302.21l-36.61 -113.65c-19.3,-39.77 -71.45,-38.97 -92.25,-1.07 -19.76,35.99 22.38,128.2 36.71,172.2 10.79,33.12 30.35,71.84 52.01,98.25 85.53,104.24 52.04,86.25 164.05,176.92 9.08,7.35 12.33,11.91 21.29,19.17l100.46 55.58c153.49,83.78 391.75,86.82 547.73,18.43 73.92,-32.4 127.88,-60.37 189.05,-111.47l92.55 -92.39c44.52,-52.6 63.16,-95.79 94.15,-154.35 59.91,4.99 85.74,61.83 68.56,-109.02 -3.41,-33.97 -14.47,-94.17 -22.33,-127.93 -55.77,-13.35 -55.04,6.78 -116.92,68.02 -17.63,17.45 -85.35,61.33 -85.35,82.24z"/>
  <path class="fil2" d="M5289.81 761.86c-53.64,-12.5 -23.01,-16.57 -69.35,-5.78 -9.61,41.26 11.03,147.65 19.58,200.03 15.42,94.48 72.71,26.52 151.04,-46.74 96.77,-90.49 66.99,-78.84 2.75,-112.83 46.7,-88.26 33.28,-75.47 98.97,-143.74 76.48,-79.49 50.67,-59.26 147.09,-118.75 154.78,-95.51 373.79,-95.84 538.05,-13.06 30.52,15.38 54.41,30.89 84.71,48.21 22.09,12.63 80.89,76.75 104.27,97.99l30.59 38.76c9.75,17.89 15.62,28.21 25.27,44.08 29.48,48.46 44.69,81.55 62.69,139.58 13.13,42.32 4.33,57.11 29.42,74.61 46.08,32.14 99.37,-6.36 77.4,-83.03 -13.47,-47.03 -26.25,-86.9 -46.45,-127.08 -54.61,-108.64 -129.15,-208.1 -231.9,-276.66l-112.66 -60.72c-24.21,-10.34 -34.11,-16.57 -61.17,-25.51 -23.87,-7.89 -37.16,-12.42 -67.64,-19.06 -101.81,-22.17 -161.86,-29.27 -266.93,-7.65 -70.12,14.43 -127.96,30.11 -193.38,66.69 -104.95,58.68 -24.4,2.49 -120.1,76.39l-49.75 42.72c-7.76,7.17 -10.67,9.48 -18.18,16.48 -45.57,42.49 -104.15,137.99 -134.35,195.07z"/>
  <path class="fil3" d="M5965.97 1276.2l0 -179.15c100.92,23.51 92.46,58.66 92.46,109.81 0,23.63 -42.98,65.23 -92.46,69.35zm-179.15 -381.42c0,-39.01 41.65,-71.76 80.91,-80.91l0 161.82c-39.26,-9.15 -80.91,-41.9 -80.91,-80.91zm80.91 -179.15c-43.49,3.62 -87.35,29.73 -116.92,50.67 -63.5,44.95 -89.01,179.62 -0.26,257.23 19.69,17.22 84.14,49.67 117.19,50.41l0 202.27c-85.12,-19.82 -62.42,-92.8 -143.89,-51.42 -40.15,20.39 -23.45,47.5 2.85,76.88 29.7,33.18 96.68,69.1 141.04,72.78 0,47.97 -23.11,102.06 92.46,75.13 2.95,-35.49 5.78,-16.78 5.78,-75.13 63.63,-1.41 144.52,-51.63 171.6,-105.8 45.85,-91.72 16.25,-205.4 -98.67,-250.31 -15.25,-5.96 -57.56,-18.26 -72.93,-19.54l0 -179.15c46.54,3.87 46.41,32.47 75.29,46.76 43.39,21.46 153.86,-59.38 -27.24,-135.27 -17.53,-7.35 -33.64,-8.59 -48.06,-15.51 0,-79.82 -3.41,-69.35 -75.13,-69.35 -30.92,0 -23.11,38.3 -23.11,69.35z"/>
 </g>
</svg>
