<?xml version="1.0" encoding="UTF-8"?>
<!DOCTYPE svg PUBLIC "-//W3C//DTD SVG 1.1//EN" "http://www.w3.org/Graphics/SVG/1.1/DTD/svg11.dtd">
<!-- Creator: CorelDRAW -->
<svg xmlns="http://www.w3.org/2000/svg" xml:space="preserve" width="141.214mm" height="29.6622mm" version="1.1" style="shape-rendering:geometricPrecision; text-rendering:geometricPrecision; image-rendering:optimizeQuality; fill-rule:evenodd; clip-rule:evenodd"
viewBox="0 0 15651.55 3287.62"
 xmlns:xlink="http://www.w3.org/1999/xlink"
 xmlns:xodm="http://www.corel.com/coreldraw/odm/2003">
 <defs>
  <style type="text/css">
   <![CDATA[
    .fil1 {fill:#252F52;fill-rule:nonzero}
    .fil0 {fill:#F7DB06;fill-rule:nonzero}
   ]]>
  </style>
 </defs>
 <g id="Capa_x0020_1">
  <metadata id="CorelCorpID_0Corel-Layer"/>
  <g id="banco-pichincha-4344.cdr">
   <path class="fil0" d="M3256.17 19.76l0 3256.17 -2165.9 0c-602.15,0 -1090.27,-488.12 -1090.27,-1090.27l0 -2165.9 2049.97 0 1206.2 0z"/>
   <polygon class="fil1" points="2714.25,1645.52 2714.25,561.66 1628.08,561.66 1628.08,1051.52 2224.42,1051.52 2224.42,1645.52 "/>
   <path class="fil1" d="M4981.1 1387.95c142.3,0 255.38,-37.03 341.15,-109.18 87.69,-74.04 130.61,-171.53 130.61,-290.42 0,-126.71 -58.49,-230.05 -173.52,-311.92 93.58,-72.12 140.38,-165.7 140.38,-276.8 0,-243.67 -185.22,-378.18 -471.77,-378.18l-614.05 0 0 1366.51 647.2 0zm-356.75 -575.06l0 0 298.26 0c157.9,0 237.82,50.66 237.82,150.1 0,115.01 -83.84,157.9 -245.62,157.9l-290.46 0 0 -308zm265.11 -524.4l0 0c169.62,0 237.83,37.03 237.83,140.36 0,93.55 -76.01,140.35 -226.15,140.35l-276.79 0 0 -280.71 265.11 0z"/>
   <path class="fil1" d="M6070.64 861.66l169.59 -446.42 169.61 446.42 -339.2 0zm344.62 -746.48l0 0c-22.07,-56.53 -76.55,-93.73 -137.21,-93.73l-176.23 0 -534.15 1366.55 300.23 0 107.19 -269.03 528.33 0 109.16 269.03 300.2 0 -497.52 -1272.81z"/>
   <path class="fil1" d="M8315.44 1387.98l0 -1366.55 -288.5 0 0 925.99 -508.82 -854.06c-26.6,-44.6 -74.68,-71.92 -126.59,-71.92l-265.23 0 0 1366.55 290.46 0 0 -922.07 508.79 850.35c26.62,44.52 74.61,71.72 126.44,71.72l263.46 0z"/>
   <path class="fil1" d="M9666.89 947.41c-93.58,126.73 -216.4,191.05 -370.38,191.05 -118.93,0 -218.37,-38.97 -298.29,-116.95 -79.89,-77.97 -120.87,-185.19 -120.87,-319.72 0,-132.56 40.98,-237.82 120.87,-313.83 81.9,-77.98 175.44,-116.99 282.66,-116.99 104.94,0 201.31,34.28 277.09,94.25 56.98,45.05 140.15,35.23 191.01,-16.65l89.43 -91.26c-138.39,-171.53 -319.69,-257.32 -543.88,-257.32 -204.68,0 -374.27,64.35 -510.74,194.96 -136.44,128.65 -204.68,300.21 -204.68,512.68 0,210.54 68.24,380.13 204.68,508.8 138.41,128.67 311.92,192.99 520.48,192.99 230.05,0 415.21,-85.78 555.6,-257.3l-192.99 -204.71z"/>
   <path class="fil1" d="M11007.43 1011.76c-72.12,83.8 -171.56,124.76 -294.38,124.76 -126.7,0 -226.14,-40.95 -300.2,-124.76 -74.07,-83.84 -111.1,-185.23 -111.1,-308.01 0,-120.87 37.03,-222.21 111.1,-306.05 76.03,-83.85 175.44,-124.79 300.2,-124.79 118.89,0 214.44,42.92 290.46,126.7 76.03,83.84 115.01,185.22 115.01,304.14 0,122.78 -37.01,224.18 -111.09,308.01zm200.79 -810.97l0 0c-136.47,-134.5 -304.12,-200.79 -502.94,-200.79 -196.91,0 -364.56,66.29 -499.08,200.79 -134.47,132.56 -202.74,300.23 -202.74,502.96 0,204.68 68.27,372.33 202.74,506.83 134.52,132.59 302.17,198.85 499.08,198.85 198.82,0 366.47,-66.26 502.94,-198.85 136.44,-134.5 204.68,-302.15 204.68,-506.83 0,-202.73 -68.24,-370.4 -204.68,-502.96z"/>
   <path class="fil1" d="M14809.01 2739.54l169.67 -446.62 169.71 446.62 -339.38 0zm344.8 -746.85l0 0c-22.09,-56.55 -76.61,-93.76 -137.28,-93.76l-176.29 0 -534.43 1367.21 300.35 0 107.27 -269.15 528.57 0 109.24 269.15 300.31 0 -497.74 -1273.45z"/>
   <path class="fil1" d="M7307.42 2825.35c-93.63,126.77 -216.47,191.16 -370.54,191.16 -118.99,0 -218.46,-39.04 -298.41,-117.04 -79.98,-78.01 -120.92,-185.27 -120.92,-319.86 0,-132.61 40.94,-237.94 120.92,-314.01 81.93,-78.01 175.51,-117.01 282.81,-117.01 103.7,0 199.03,33.46 274.42,92.1 58.44,45.41 142.07,38.36 193.9,-14.48l89.49 -91.3c-138.47,-171.64 -319.86,-257.46 -544.17,-257.46 -204.77,0 -374.47,64.35 -511,195.06 -136.54,128.72 -204.77,300.34 -204.77,512.95 0,210.61 68.23,380.32 204.77,509.02 138.5,128.76 312.06,193.08 520.74,193.08 230.16,0 415.44,-85.81 555.86,-257.43l-193.09 -204.79z"/>
   <polygon class="fil1" points="5955.32,1898.92 5666.66,1898.92 5666.66,3266.12 5955.32,3266.12 "/>
   <path class="fil1" d="M9563.83 1898.92l-288.28 0 0 1367.21 288.66 0 0 -1366.86c-0.14,-0.12 -0.23,-0.21 -0.38,-0.35z"/>
   <path class="fil1" d="M8919.67 3266.14l0 -1367.21 -141.14 0c-81.49,0 -147.52,66.04 -147.52,147.5l0 388.84 -573.43 0 0 -536.34 -290.58 0 0 1367.21 290.58 0 0 -565.6 573.43 0 0 565.6 288.66 0z"/>
   <path class="fil1" d="M4837.07 2565.96l-212.59 0 0 -399.85 212.59 0c200.88,0 296.46,58.52 296.46,196.99 0,134.59 -99.51,202.86 -296.46,202.86zm438.82 -542.21l0 0c-97.5,-83.89 -226.26,-124.85 -388.13,-124.85l-553.88 0 0 1367.24 290.6 0 0 -433 263.28 0c158,0 286.72,-42.88 386.19,-130.7 99.46,-87.75 148.21,-202.82 148.21,-345.19 0,-140.44 -48.75,-251.62 -146.27,-333.51z"/>
   <path class="fil1" d="M11109.83 3266.16l0 -1367.2 -288.63 0 0 926.44 -509.09 -854.46c-26.59,-44.63 -74.7,-71.98 -126.66,-71.98l-265.32 0 0 1367.2 290.58 0 0 -922.53 509.04 850.78c26.62,44.51 74.65,71.74 126.5,71.74l263.58 0z"/>
   <path class="fil1" d="M12461.96 2825.41c-93.63,126.75 -216.48,191.12 -370.56,191.12 -118.98,0 -218.45,-39 -298.4,-117.01 -79.98,-78.04 -120.92,-185.31 -120.92,-319.89 0,-132.61 40.94,-237.94 120.92,-314.01 81.9,-78.01 175.51,-117.01 282.81,-117.01 104.97,0 201.37,34.34 277.18,94.28 57.04,45.1 140.24,35.27 191.14,-16.65l89.49 -91.28c-138.47,-171.63 -319.86,-257.46 -544.18,-257.46 -204.76,0 -374.47,64.37 -511,195.05 -136.49,128.76 -204.76,300.35 -204.76,512.97 0,210.62 68.26,380.3 204.76,509.03 138.5,128.72 312.07,193.08 520.75,193.08 230.16,0 415.44,-85.84 555.86,-257.43l-193.09 -204.79z"/>
   <path class="fil1" d="M14073.95 3266.14l0 -1367.21 -141.14 0c-81.49,0 -147.52,66.04 -147.52,147.5l0 388.84 -573.44 0 0 -536.34 -290.57 0 0 1367.21 290.57 0 0 -565.6 573.44 0 0 565.6 288.66 0z"/>
  </g>
 </g>
</svg>
