<?xml version="1.0" encoding="iso-8859-1"?>
<!-- Generator: Adobe Illustrator 21.0.0, SVG Export Plug-In . SVG Version: 6.00 Build 0)  -->
<svg version="1.1" id="Capa_1" xmlns="http://www.w3.org/2000/svg" xmlns:xlink="http://www.w3.org/1999/xlink" x="0px" y="0px"
	 viewBox="0 0 272.22 38.72" style="enable-background:new 0 0 272.22 38.72;" xml:space="preserve">
<g>
	<path style="fill:#EC111A;" d="M66.15,31.19c-3.27,0-5.94-2.66-5.94-5.93c0-3.27,2.66-5.94,5.94-5.94c3.27,0,5.94,2.66,5.94,5.94
		C72.09,28.53,69.42,31.19,66.15,31.19L66.15,31.19z M66.15,11.79c-7.42,0-13.46,6.04-13.46,13.46c0,7.42,6.04,13.46,13.46,13.46
		c7.42,0,13.46-6.04,13.46-13.46C79.61,17.83,73.57,11.79,66.15,11.79L66.15,11.79z"/>
	<polygon style="fill:#EC111A;" points="96.77,12.43 93.09,12.43 93.09,4.48 85.04,4.48 85.04,12.43 81.37,12.43 81.37,19.72 
		85.04,19.72 85.04,38.08 93.09,38.08 93.09,19.72 96.77,19.72 96.77,12.43 	"/>
	<polygon style="fill:#EC111A;" points="100.46,38.08 108.5,38.08 108.5,12.43 100.46,12.43 100.46,38.08 	"/>
	<path style="fill:#EC111A;" d="M104.48,0C102.01,0,100,2.01,100,4.48c0,2.47,2.01,4.48,4.48,4.48c2.47,0,4.48-2.01,4.48-4.48
		C108.96,2.01,106.95,0,104.48,0L104.48,0z"/>
	<path style="fill:#EC111A;" d="M219.9,19.34c2.64,0,4.8,2.15,4.8,4.8v13.94h8.05V23.03c0-6.83-3.94-11.24-10.16-11.24
		c-2.56,0-5.26,1.12-7.48,4.71v-4.07h-8.05v25.65h8.05V24.14C215.1,21.49,217.26,19.34,219.9,19.34L219.9,19.34z"/>
	<polygon style="fill:#EC111A;" points="262.07,38.08 252.18,25.26 261.38,12.43 251.97,12.43 244.58,22.81 244.58,0.64 
		236.54,0.64 236.54,38.08 244.58,38.08 244.58,27.51 252.7,38.08 262.07,38.08 	"/>
	<path style="fill:#EC111A;" d="M24.98,31.17c0.58-1.4,0.83-2.81,0.83-4.73c0-2.59-0.81-4.9-2.29-6.51
		c-1.72-1.88-4.66-3.44-8.73-4.65c-0.89-0.26-1.64-0.54-2.29-0.86c-0.72-0.35-1.25-0.78-1.7-1.27c-0.52-0.56-0.73-1.23-0.73-2.08
		c0-1.19,0.64-2,1.67-2.65c1.3-0.82,3.8-0.9,6.36,0.05c0.89,0.33,1.69,0.7,2.6,1.23l3.42-6.81c-1.27-0.76-3.08-1.75-4.91-2.21
		C17.36,0.22,15.62,0,13.75,0c-1.88,0-3.6,0.28-5.11,0.84c-1.34,0.5-2.73,1.4-3.91,2.55c-1.07,1.04-2.04,2.52-2.6,3.89
		c-0.57,1.4-0.86,3-0.86,4.74c0,1.82,0.86,4.76,3.03,6.8c2.34,2.2,5,2.98,6.07,3.39c1.06,0.41,2.25,0.76,3,1.06
		c0.79,0.32,1.69,0.74,2.2,1.12c0.55,0.41,0.92,0.79,1.17,1.31c0.24,0.51,0.31,0.97,0.25,1.64c-0.07,0.85-0.45,1.56-1.14,2.21
		c-0.69,0.65-1.93,1.02-3.7,1.02c-1.48,0-2.99-0.42-4.49-1.08c-1.32-0.58-2.24-1.1-3.65-1.93L0,34.56
		c2.81,2.49,7.36,4.16,11.41,4.16c2.07,0,4.22-0.34,6.06-0.97c1.74-0.59,3.45-1.55,4.59-2.57C23.29,34.09,24.41,32.55,24.98,31.17
		L24.98,31.17z"/>
	<path style="fill:#EC111A;" d="M267.74,37.17c-1.98,0-3.58-1.6-3.58-3.58c0-1.98,1.6-3.58,3.58-3.58c1.98,0,3.58,1.6,3.58,3.58
		C271.32,35.57,269.72,37.17,267.74,37.17L267.74,37.17z M267.74,29.11c-2.48,0-4.48,2.01-4.48,4.48c0,2.48,2.01,4.48,4.48,4.48
		s4.48-2.01,4.48-4.48C272.22,31.12,270.22,29.11,267.74,29.11L267.74,29.11z"/>
	<path style="fill:#EC111A;" d="M267.02,33.52h1.03c0.38,0,0.69-0.33,0.69-0.75c0-0.42-0.31-0.75-0.69-0.75h-1.03V33.52
		L267.02,33.52z M267.73,34.34h-0.72v1.7h-0.88v-4.89h1.88c0.9,0,1.63,0.73,1.63,1.62c0,0.61-0.38,1.17-0.94,1.43l1.03,1.85h-1.06
		L267.73,34.34L267.73,34.34z"/>
	<path style="fill:#EC111A;" d="M47.02,28.97c-1.09,1.35-2.75,2.22-4.62,2.22c-3.27,0-5.94-2.66-5.94-5.94
		c0-3.27,2.66-5.93,5.94-5.93c1.87,0,3.53,0.87,4.62,2.22l5.33-5.34c-2.46-2.71-6.01-4.41-9.96-4.41c-7.42,0-13.89,5.28-13.89,13.46
		c0,8.18,6.46,13.47,13.89,13.47c3.94,0,7.49-1.7,9.96-4.41L47.02,28.97L47.02,28.97z"/>
	<path style="fill:#EC111A;" d="M125.91,31.31c-3.34,0-6.06-2.72-6.06-6.06c0-3.34,2.72-6.06,6.06-6.06c3.34,0,6.06,2.72,6.06,6.06
		C131.97,28.59,129.25,31.31,125.91,31.31L125.91,31.31z M139.99,38.08V12.43h-7.85v2.7l-0.73-0.65c-1.97-1.76-4.17-2.69-6.76-2.69
		c-6.92,0-12.77,6.17-12.77,13.46c0,7.3,5.85,13.47,12.77,13.47c2.59,0,4.79-0.93,6.76-2.69l0.73-0.65v2.7H139.99L139.99,38.08z"/>
	<path style="fill:#EC111A;" d="M189.12,31.31c-3.34,0-6.06-2.72-6.06-6.06c0-3.34,2.72-6.06,6.06-6.06c3.34,0,6.06,2.72,6.06,6.06
		C195.18,28.59,192.46,31.31,189.12,31.31L189.12,31.31z M203.2,38.08V12.43h-7.84v2.7l-0.73-0.65c-1.97-1.76-4.17-2.69-6.76-2.69
		c-6.92,0-12.77,6.17-12.77,13.46c0,7.3,5.85,13.47,12.77,13.47c2.59,0,4.79-0.93,6.76-2.69l0.73-0.65v2.7H203.2L203.2,38.08z"/>
	<path style="fill:#EC111A;" d="M152.17,25.25c0-3.34,2.72-6.06,6.06-6.06c3.34,0,6.06,2.72,6.06,6.06c0,3.34-2.72,6.06-6.06,6.06
		C154.89,31.31,152.17,28.59,152.17,25.25L152.17,25.25z M151.99,38.08v-2.7l0.73,0.65c1.97,1.76,4.17,2.69,6.76,2.69
		c6.92,0,12.77-6.17,12.77-13.46c0-7.3-5.85-13.46-12.77-13.46c-2.59,0-4.79,0.93-6.76,2.69l-0.73,0.65V0.64h-7.85v37.44H151.99
		L151.99,38.08z"/>
</g>
</svg>
