<svg xmlns="http://www.w3.org/2000/svg" viewBox="0 0 48 48" id="wallet">
  <path fill="#1c1c1b" d="M44.027,10.88H3.973A3.977,3.977,0,0,0,0,14.853V44.027A3.977,3.977,0,0,0,3.973,48H44.027A3.977,3.977,0,0,0,48,44.027V14.853A3.977,3.977,0,0,0,44.027,10.88ZM46,31.741H35.676a2.865,2.865,0,1,1,0-5.73H46ZM44.027,46H3.973A1.975,1.975,0,0,1,2,44.027V14.853A1.975,1.975,0,0,1,3.973,12.88H44.027A1.975,1.975,0,0,1,46,14.853v9.158H35.676a4.865,4.865,0,1,0,0,9.73H46V44.027A1.975,1.975,0,0,1,44.027,46Z"></path>
  <path fill="#1c1c1b" d="M1,11.021a1,1,0,0,0,1-1A1.975,1.975,0,0,1,3.973,8.048h9.434l-.636.182a1,1,0,0,0,.275,1.962.987.987,0,0,0,.277-.04L40.889,2.237l2.03,7.07a1,1,0,1,0,1.922-.552l-.169-.59A1.97,1.97,0,0,1,46,10.021a1,1,0,0,0,2,0,3.975,3.975,0,0,0-3.935-3.969L42.535.724A1,1,0,0,0,41.3.039L20.372,6.048H3.973A3.977,3.977,0,0,0,0,10.021,1,1,0,0,0,1,11.021Z"></path>
  <path fill="#1c1c1b" d="M39.134 3.806L23.724 8.23A1 1 0 0 0 24 10.192a.98.98 0 0 0 .276-.04L38.725 6l.949 3.3A1 1 0 1 0 41.6 8.755L40.371 4.491A1 1 0 0 0 39.134 3.806zM34.992 28.876a.992.992 0 1 0 .992-.992A.992.992 0 0 0 34.992 28.876z"></path>
</svg>
