<?xml version="1.0" encoding="iso-8859-1"?>
<!-- Generator: Adobe Illustrator 21.0.0, SVG Export Plug-In . SVG Version: 6.00 Build 0)  -->
<svg version="1.1" id="Capa_1" xmlns="http://www.w3.org/2000/svg" xmlns:xlink="http://www.w3.org/1999/xlink" x="0px" y="0px"
	 viewBox="0 0 402.04 127.44" style="enable-background:new 0 0 402.04 127.44;" xml:space="preserve">
<g>
	<path style="fill-rule:evenodd;clip-rule:evenodd;fill:#004679;" d="M208.99,19.88c-2.55,0-5.11,0-7.66,0
		c-0.25,0-0.5-0.01-0.74,0.02c-0.73,0.08-1.27,0.65-1.23,1.39c0.02,0.37,0.16,0.75,0.33,1.08c1.81,3.42,3.64,6.83,5.46,10.24
		c15.27,28.59,30.55,57.18,45.82,85.76c0.54,1.02,1.07,2.04,1.64,3.04c0.54,0.95,1.62,1.27,2.56,0.82c0.5-0.24,0.77-0.67,1.02-1.14
		c2.75-5.16,5.51-10.31,8.26-15.47c13.23-24.76,26.46-49.53,39.7-74.29c1.63-3.05,3.25-6.11,4.9-9.15c0.69-1.28-0.25-2.33-1.3-2.32
		c-5.41,0.04-10.82,0.02-16.23,0.02c-0.82,0-1.42,0.36-1.81,1.07c-0.17,0.31-0.33,0.63-0.5,0.95
		c-10.98,20.89-21.95,41.79-32.93,62.68c-0.14,0.27-0.27,0.55-0.45,0.78c-0.8,1.04-2.33,1.03-3.12-0.02
		c-0.16-0.22-0.29-0.47-0.41-0.71c-1.78-3.38-3.55-6.75-5.33-10.13c-9.34-17.76-18.67-35.51-28-53.28
		c-0.49-0.93-1.16-1.37-2.22-1.36C214.16,19.91,211.58,19.88,208.99,19.88L208.99,19.88z"/>
	<path style="fill-rule:evenodd;clip-rule:evenodd;fill:#004679;" d="M387.42,107.56c2.53,0,5.05,0,7.58,0
		c0.25,0,0.5,0.01,0.74-0.01c0.97-0.1,1.54-0.99,1.21-1.91c-0.1-0.28-0.26-0.55-0.4-0.81c-6.85-12.83-13.71-25.66-20.56-38.49
		c-10.66-19.95-21.31-39.89-31.97-59.84c-0.12-0.22-0.22-0.44-0.36-0.65c-0.77-1.11-2.37-1.13-3.16-0.03
		c-0.16,0.22-0.28,0.47-0.41,0.72c-7.23,13.53-14.46,27.06-21.69,40.59c-10.28,19.24-20.57,38.49-30.85,57.73
		c-0.12,0.22-0.24,0.43-0.34,0.66c-0.41,0.97,0.16,1.94,1.21,2.03c0.25,0.02,0.49,0.01,0.74,0.01c3.1,0,6.21,0,9.31,0
		c2,0,4.01-0.04,6.01,0.02c1.17,0.03,1.95-0.42,2.4-1.48c0.01-0.03,0.03-0.05,0.04-0.07c8.92-16.98,17.84-33.97,26.76-50.95
		c2.18-4.15,4.37-8.3,6.55-12.46c0.4-0.77,0.96-1.28,1.85-1.3c0.92-0.01,1.52,0.51,1.92,1.31c0.29,0.59,0.61,1.17,0.92,1.75
		c10.82,20.58,21.64,41.15,32.44,61.73c0.54,1.02,1.25,1.49,2.41,1.47C382.31,107.53,384.86,107.56,387.42,107.56L387.42,107.56z"/>
	<path style="fill-rule:evenodd;clip-rule:evenodd;fill:#004679;" d="M76.23,67.21c0.24,0.1,0.37,0.17,0.52,0.23
		c7,2.73,11.59,7.74,13.98,14.81c1.3,3.85,1.63,7.82,1.4,11.86c-0.17,2.92-0.59,5.79-1.45,8.58c-2.24,7.27-6.88,12.45-13.71,15.69
		c-3.29,1.56-6.77,2.53-10.36,3.16c-3.8,0.66-7.63,0.89-11.48,0.89c-15.76-0.01-31.53,0-47.29,0c-0.33,0-0.66,0.01-0.99-0.01
		c-1.04-0.07-1.71-0.72-1.81-1.78c-0.02-0.25-0.02-0.49-0.02-0.74c0-32.49,0-64.97,0-97.46c0-0.03,0-0.06,0-0.08
		c-0.13-1.66,0.8-2.5,2.47-2.49c16.75,0.03,33.5,0.02,50.25,0.02c5.31,0,10.43,0.97,15.22,3.33c6.6,3.25,11.23,8.28,13.37,15.39
		c1.73,5.73,1.65,11.49-0.37,17.15c-1.71,4.8-4.73,8.57-9.21,11.09C76.59,66.93,76.46,67.05,76.23,67.21L76.23,67.21z M40.58,107.6
		L40.58,107.6c4.61,0,9.22-0.01,13.84,0c2.36,0.01,4.72-0.14,7.05-0.53c2.34-0.39,4.6-1.02,6.71-2.13c3.51-1.84,5.77-4.66,6.64-8.54
		c0.75-3.39,0.63-6.77-0.26-10.1c-0.94-3.49-3.09-6.02-6.38-7.52c-1.09-0.5-2.24-0.9-3.4-1.21c-3.44-0.92-6.98-1.15-10.52-1.15
		c-9.88-0.02-19.77-0.01-29.65-0.01c-0.19,0-0.38-0.01-0.58,0c-1.23,0.04-2,0.76-2.1,1.98c-0.02,0.22-0.01,0.44-0.01,0.66
		c0,8.68,0,17.35,0,26.03c0,0.33,0.01,0.66,0.07,0.98c0.17,0.85,0.85,1.45,1.71,1.54c0.27,0.03,0.55,0.02,0.82,0.02
		C29.87,107.6,35.23,107.6,40.58,107.6L40.58,107.6z M40.33,34.69L40.33,34.69C40.33,34.68,40.33,34.68,40.33,34.69
		c-5.24-0.01-10.49,0.03-15.73-0.03c-1.87-0.02-2.69,0.85-2.68,2.66c0.05,7.22,0.02,14.44,0.02,21.66c0,0.27-0.01,0.55,0.02,0.82
		c0.1,0.96,0.8,1.66,1.76,1.78c0.19,0.02,0.38,0.02,0.58,0.02c9.77,0,19.55,0.01,29.32,0c2.84,0,5.64-0.35,8.33-1.32
		c3.32-1.21,5.89-3.28,7.29-6.59c1.49-3.52,1.72-7.19,0.89-10.89c-0.58-2.56-2.09-4.51-4.4-5.79c-0.69-0.38-1.42-0.72-2.17-0.99
		c-2.72-0.98-5.55-1.28-8.42-1.3C50.22,34.66,45.27,34.69,40.33,34.69L40.33,34.69z"/>
	<path style="fill-rule:evenodd;clip-rule:evenodd;fill:#004679;" d="M182.35,67.21c0.21,0.09,0.33,0.15,0.44,0.19
		C190,70.21,194.66,75.4,197,82.71c1.1,3.44,1.42,6.98,1.28,10.57c-0.12,3.19-0.54,6.34-1.49,9.41c-2.2,7.11-6.69,12.24-13.34,15.51
		c-3.4,1.67-7,2.69-10.72,3.34c-3.74,0.65-7.52,0.89-11.31,0.89c-15.84,0-31.69,0-47.54,0c-0.36,0-0.72,0.01-1.07-0.03
		c-0.87-0.09-1.51-0.73-1.63-1.6c-0.04-0.27-0.03-0.55-0.03-0.82c0-32.54,0-65.08,0-97.62c0-0.25-0.01-0.5,0.02-0.74
		c0.1-0.98,0.8-1.66,1.78-1.72c0.22-0.01,0.44-0.01,0.66-0.01c16.75,0,33.5,0,50.25,0c5.06,0,9.94,0.89,14.55,3.01
		c6.1,2.81,10.65,7.19,13.26,13.45c1.47,3.52,2.03,7.22,1.95,11.02c-0.07,3.36-0.69,6.6-2.03,9.69c-1.83,4.21-4.67,7.53-8.71,9.78
		C182.72,66.93,182.58,67.05,182.35,67.21L182.35,67.21z M146.72,107.6L146.72,107.6c4.34,0,8.68-0.01,13.01,0
		c2.25,0.01,4.5-0.05,6.73-0.36c2.51-0.34,4.96-0.91,7.26-2.01c3.68-1.75,6.17-4.53,7.14-8.53c0.87-3.62,0.74-7.25-0.32-10.82
		c-0.93-3.13-2.89-5.47-5.83-6.89c-1.23-0.59-2.53-1.07-3.84-1.43c-3.39-0.92-6.87-1.15-10.36-1.15
		c-9.99-0.02-19.99,0.01-29.98-0.03c-1.37,0-2.63,0.65-2.5,2.51c0,0.05,0,0.11,0,0.16c0,8.65,0,17.29,0,25.94
		c0,0.33,0,0.66,0.05,0.98c0.15,0.89,0.84,1.52,1.74,1.6c0.27,0.02,0.55,0.01,0.82,0.01C136.01,107.6,141.36,107.6,146.72,107.6
		L146.72,107.6z M146.45,34.69L146.45,34.69C146.45,34.68,146.45,34.68,146.45,34.69c-5.24-0.01-10.49-0.01-15.73-0.01
		c-0.25,0-0.49-0.01-0.74,0.01c-1.08,0.06-1.83,0.81-1.89,1.9c-0.01,0.25-0.01,0.49-0.01,0.74c0,7.22,0,14.44,0,21.66
		c0,0.25-0.01,0.49,0.01,0.74c0.07,1,0.77,1.74,1.77,1.85c0.3,0.03,0.6,0.02,0.91,0.02c8.98,0,17.95,0.01,26.93-0.01
		c1.59,0,3.18-0.06,4.77-0.15c1.95-0.12,3.86-0.52,5.69-1.2c3.65-1.35,6.29-3.75,7.58-7.48c1.05-3.02,1.23-6.13,0.69-9.26
		c-0.41-2.38-1.56-4.38-3.53-5.84c-0.98-0.73-2.05-1.26-3.2-1.66c-2.73-0.96-5.56-1.27-8.42-1.29
		C156.34,34.66,151.39,34.69,146.45,34.69L146.45,34.69z"/>
	<path style="fill-rule:evenodd;clip-rule:evenodd;fill:#004679;" d="M208.99,19.88c2.58,0,5.16,0.02,7.74-0.01
		c1.06-0.01,1.74,0.43,2.22,1.36c9.32,17.76,18.66,35.52,28,53.28c1.78,3.38,3.55,6.75,5.33,10.13c0.13,0.24,0.25,0.49,0.41,0.71
		c0.79,1.05,2.32,1.06,3.12,0.02c0.18-0.24,0.31-0.52,0.45-0.78c10.98-20.89,21.95-41.79,32.93-62.68c0.17-0.32,0.33-0.63,0.5-0.95
		c0.39-0.71,0.99-1.07,1.81-1.07c5.41,0,10.82,0.02,16.23-0.02c1.05-0.01,2,1.04,1.3,2.32c-1.65,3.04-3.27,6.1-4.9,9.15
		c-13.23,24.76-26.46,49.53-39.7,74.29c-2.75,5.16-5.51,10.31-8.26,15.47c-0.25,0.47-0.52,0.9-1.02,1.14
		c-0.94,0.45-2.01,0.13-2.56-0.82c-0.57-1-1.1-2.03-1.64-3.04c-15.27-28.59-30.55-57.18-45.82-85.76
		c-1.82-3.41-3.65-6.82-5.46-10.24c-0.17-0.33-0.31-0.71-0.33-1.08c-0.04-0.74,0.49-1.31,1.23-1.39c0.24-0.03,0.49-0.02,0.74-0.02
		C203.89,19.88,206.44,19.88,208.99,19.88L208.99,19.88z"/>
	<path style="fill-rule:evenodd;clip-rule:evenodd;fill:#004679;" d="M387.42,107.56c-2.55,0-5.11-0.03-7.66,0.01
		c-1.16,0.02-1.87-0.45-2.41-1.47c-10.8-20.58-21.62-41.16-32.44-61.73c-0.31-0.58-0.63-1.16-0.92-1.75
		c-0.39-0.81-0.99-1.33-1.92-1.31c-0.89,0.01-1.44,0.53-1.85,1.3c-2.17,4.16-4.36,8.31-6.55,12.46
		c-8.92,16.98-17.84,33.97-26.76,50.95c-0.01,0.02-0.03,0.05-0.04,0.07c-0.45,1.07-1.23,1.51-2.4,1.48c-2-0.05-4.01-0.02-6.01-0.02
		c-3.1,0-6.21,0-9.31,0c-0.25,0-0.5,0.01-0.74-0.01c-1.04-0.1-1.62-1.06-1.21-2.03c0.1-0.23,0.22-0.44,0.34-0.66
		c10.28-19.24,20.56-38.49,30.85-57.73c7.23-13.53,14.46-27.06,21.69-40.59c0.13-0.24,0.25-0.49,0.41-0.72
		c0.79-1.09,2.39-1.08,3.16,0.03c0.14,0.2,0.25,0.43,0.36,0.65c10.66,19.95,21.31,39.89,31.97,59.84
		c6.85,12.83,13.71,25.66,20.56,38.49c0.14,0.27,0.3,0.53,0.4,0.81c0.33,0.92-0.24,1.81-1.21,1.91c-0.25,0.03-0.49,0.01-0.74,0.01
		C392.47,107.56,389.94,107.56,387.42,107.56L387.42,107.56z"/>
</g>
</svg>
