<?xml version="1.0" encoding="UTF-8"?>
<!DOCTYPE svg PUBLIC "-//W3C//DTD SVG 1.1//EN" "http://www.w3.org/Graphics/SVG/1.1/DTD/svg11.dtd">
<!-- Creator: CorelDRAW -->
<svg xmlns="http://www.w3.org/2000/svg" xml:space="preserve" width="203.334mm" height="35.7091mm" version="1.1" style="shape-rendering:geometricPrecision; text-rendering:geometricPrecision; image-rendering:optimizeQuality; fill-rule:evenodd; clip-rule:evenodd"
viewBox="0 0 18837.74 3308.24"
 xmlns:xlink="http://www.w3.org/1999/xlink"
 xmlns:xodm="http://www.corel.com/coreldraw/odm/2003">
 <defs>
  <style type="text/css">
   <![CDATA[
    .fil0 {fill:#FEFEFE}
   ]]>
  </style>
 </defs>
 <g id="Capa_x0020_1">
  <metadata id="CorelCorpID_0Corel-Layer"/>
  <g id="_2608657821392">
   <path class="fil0" d="M-0 2483.43l422.47 -9.01 0.61 -1762.56c111.77,123.71 576.74,1467.37 597.02,1548.69 554.2,24.32 432.69,38.51 585.71,-370.58 49.92,-133.44 100.19,-261.84 151.88,-404.25 75.79,-208.79 203.63,-614.86 304.27,-791.9l14.3 1781.49 422.27 7.05 0 -2481.04 -593.34 0.63 -639.96 1711.93c-19.11,-11.75 -26.76,-31.07 -28.91,-25.98l-162.46 -399.27c-56.95,-149.67 -103.1,-281.53 -158.68,-429.67 -95.41,-254.29 -253.74,-615.27 -310.95,-858.17l-594.6 -0.78 -9.63 2483.38 0 0.05z"/>
   <path class="fil0" d="M7592.05 686.39c-501.07,1.24 -894.89,403.47 -580.19,1045.59l-94.53 142.63c-84.96,169.6 -66.48,342.72 39.46,492.85l57.48 83.57c-8.09,9.63 -364.25,241.56 -28.14,605.85 302.92,328.28 1017.99,330.68 1309.93,32.61 168.49,-172.04 387.06,-751.07 -493.38,-881.43 -200.66,-29.72 -662.31,-16.78 -536.41,-240.97 30.61,-32.11 75.31,-11.55 148.06,3.1 629.67,126.78 1058.85,-305.86 842.45,-922.07 65.13,-59.97 162.01,-138.11 237.31,-206.89 -79.09,-105.92 -109.85,-158.13 -215.68,-257.54 -117.6,59.4 -183.28,185.3 -288.94,184.95 -70.84,-0.21 -217.87,-82.64 -397.41,-82.21l-0.02 -0.03zm-54.95 354.12c-159.78,51.27 -248.42,158.1 -198.25,387.78 34.65,158.69 174.21,252.21 373.37,198.31 306.64,-82.98 224.12,-714.19 -175.12,-586.09zm485.24 1657.32c-186.13,-95.06 -479.52,-103.26 -729.18,-144.14 -117.21,206.43 -80.54,326.73 190.97,396.73 255.69,65.93 542.47,37.54 538.21,-252.59l0.01 -0.01z"/>
   <path class="fil0" d="M2992.31 1078.33c72.59,82.01 202.44,191.34 318.28,224.47 413.78,-399.88 722.4,-215.17 749.02,130.04 -520.77,30.91 -1316.59,-61.65 -1126.3,677.3 101.67,394.78 719.7,613.26 1151.8,156.87l35.74 207.78 348.69 10.08c0.02,-502.98 105.74,-1322.4 -213.76,-1599.84 -290.24,-252.03 -895.07,-297.51 -1263.44,193.3l-0.03 0zm1055.47 668.69c-125.73,-7.44 -401.42,-16.4 -512.16,12.55 -145.51,38.07 -261.68,195.71 -128.08,330.46 193.33,195.02 645.92,-20.76 640.24,-343.02z"/>
   <path class="fil0" d="M5403.45 882.61c-6.22,-6.32 -11.28,-28.3 -13.6,-22.87 -23.87,56.24 42.18,-87.98 -148.05,-110.2 -67.28,-7.87 -234.2,2.21 -312.11,2.21l0 1731.68 423.58 0c-2.92,-660.66 -131.3,-1360.76 347.52,-1399.86 520.6,-42.51 382.83,731.54 382.83,1398.57l417.67 -2.77c-0.1,-360.85 47.21,-1173.13 -73.05,-1446.02 -174.02,-394.9 -758.42,-482.33 -1024.77,-150.74l-0.01 0z"/>
   <path class="fil0" d="M11481.3 1889.48c-113.73,41.65 -221.86,88.56 -315.77,143.98 78.78,235.77 253.11,401.33 530.22,464.52 814.85,185.83 1125.63,-655.53 692.39,-954.24 -306.78,-211.53 -622.19,-121.38 -694.65,-367.35 168.58,-287.8 433.44,-66.56 572.19,77.06l318.77 -164.72c-120.09,-271.17 -444.71,-435.11 -836.64,-365.51 -300.59,53.38 -594.81,335.28 -434.19,719.09 139.74,333.89 662.16,272.49 790.27,424.76 196.99,234.16 -268.21,392.75 -478.15,210.36l-144.49 -187.95 0.04 0z"/>
   <path class="fil0" d="M17795.4 2646.77c192.01,-493.1 -37.14,-964.44 513.56,-1115.32 102.52,243.52 -116.93,761.41 -134.82,1053.67 143.03,59.73 245.71,111.26 436.73,109.24 129.93,-429.52 485.46,-1534.72 -96.37,-1637.35 -220.96,-38.98 -356.95,168.88 -461.09,256.49l195.75 -773.02c-160.96,-42.74 -291.88,-91.83 -464.21,-88.74 -121.73,408.26 -223.52,787.08 -308.83,1245.17 -38.41,206.28 -87.35,468.68 -104.01,674.74 -7.95,98.32 -55.2,295.67 261.9,313 48.93,2.67 80.96,16.86 161.4,-37.84l-0.02 -0.02z"/>
   <path class="fil0" d="M15422.21 2415.44c83.6,176.61 20.94,243.27 264.68,273.48 240.39,29.78 181.36,-84.77 199.08,-333.01 25.93,-362.99 143.41,-697.79 167.2,-1007.92 -527.09,-361 -1145.42,-491.96 -1390.87,260.66 -102.6,314.62 -118.63,680.12 66.51,904.51 310.84,376.7 485.72,138.22 693.4,-97.71l-0.01 -0.01zm-358.01 -181.79c175.85,-9.24 301.66,-91.65 364.05,-247.21 55.62,-138.64 109.64,-385.5 65.97,-499.89 -360.32,-155.12 -453.7,448.66 -430.02,747.1z"/>
   <path class="fil0" d="M14296.31 2014.25c-262.41,77.73 -252.01,265.78 -620.87,203.18 -400.1,-355.74 63.31,-1461.42 380.08,-1240.51 122.64,133.04 61.75,236.76 24.86,416.46 161.16,51.45 257.45,28.36 427.65,8.76 87.04,-229.81 190.91,-416.44 -5.23,-610 -1087.85,-1073.51 -2211.79,1421.53 -914.71,1866.14 256.61,87.97 476.2,11.99 665.05,-116.8 246.41,-168.07 212.32,-279.57 43.18,-527.26l0 0.01z"/>
   <path class="fil0" d="M16854.27 2066.2c-265.1,45.78 -365.42,-73.05 -590.43,-140.95l-118.08 334.64c223.36,180.08 259.63,72.07 300.78,266.84 15.3,72.41 -19.96,55.64 20.71,196.27l225.13 57.11c174.88,-449.02 -37.82,-153.88 314.15,-386.47 138.91,-91.81 237.07,-276.37 252.2,-437.04 48.17,-511.47 -566.57,-408.17 -584.92,-761.48 211.34,-95.58 366.63,35.99 601.84,46.66l92.57 -312.41 -261.19 -146.62c1.93,-57.15 40.02,-162.69 -0.44,-261.97l-225.12 -48.69c-256.29,400.19 102.97,99.35 -340.71,330.94 -120.12,62.69 -259.74,226.58 -276.95,427.84 -47.69,557.9 522.42,426.24 590.46,835.28l0 0.05z"/>
   <path class="fil0" d="M10550.37 2048.73c0,78.92 39.48,59.01 95.36,85.83 -22.9,34.2 -42.56,69.44 -65.02,106.65 -51.14,84.64 -68.02,100.89 -140.9,173.79 -54.24,54.22 -66.18,68.57 -125.71,103.19 -37.64,21.88 -69.01,44.97 -106.91,64.73 -39.12,20.4 -83.51,40.07 -125.43,55.77 -227.72,85.36 -513.41,61.12 -738.12,-50.76 -9.26,-4.62 -10.38,-4.47 -19.6,-9.01 -193.5,-95.57 -363.66,-289.6 -445.41,-498.69l-60.41 -187.54c-31.85,-65.63 -117.9,-64.3 -152.22,-1.77 -32.61,59.38 36.93,211.54 60.58,284.16 17.81,54.65 50.08,118.55 85.83,162.13 141.13,172.01 85.87,142.33 270.71,291.94 14.98,12.13 20.34,19.65 35.13,31.63l165.78 91.72c253.28,138.25 646.44,143.26 903.83,30.42 121.98,-53.46 211.02,-99.62 311.96,-183.94l152.72 -152.46c73.47,-86.8 104.22,-158.07 155.36,-254.7 98.86,8.24 141.49,102.03 113.14,-179.9 -5.62,-56.06 -23.87,-155.39 -36.84,-211.1 -92.03,-22.03 -90.83,11.19 -192.93,112.24 -29.09,28.79 -140.84,101.2 -140.84,135.71l-0.04 -0.03z"/>
   <path class="fil0" d="M8728.93 1257.23c-88.51,-20.62 -37.97,-27.34 -114.43,-9.54 -15.86,68.08 18.2,243.64 32.31,330.08 25.45,155.9 119.98,43.77 249.24,-77.13 159.68,-149.32 110.54,-130.1 4.54,-186.19 77.06,-145.65 54.92,-124.53 163.31,-237.19 126.2,-131.17 83.61,-97.79 242.72,-195.95 255.41,-157.61 616.81,-158.15 887.86,-21.55 50.36,25.38 89.78,50.97 139.78,79.55 36.46,20.84 133.48,126.64 172.06,161.7l50.48 63.96c16.09,29.52 25.77,46.55 41.7,72.73 48.65,79.97 73.74,134.57 103.45,230.32 21.67,69.84 7.14,94.24 48.55,123.11 76.04,53.04 163.97,-10.5 127.72,-137.01 -22.23,-77.61 -43.32,-143.39 -76.64,-209.7 -90.11,-179.28 -213.12,-343.39 -382.67,-456.53l-185.91 -100.19c-39.95,-17.07 -56.29,-27.34 -100.94,-42.1 -39.39,-13.02 -61.32,-20.49 -111.62,-31.45 -168,-36.59 -267.09,-48.3 -440.48,-12.63 -115.7,23.81 -211.15,49.69 -319.1,110.05 -173.18,96.83 -40.26,4.11 -198.18,126.05l-82.09 70.49c-12.8,11.83 -17.6,15.65 -30,27.19 -75.2,70.11 -171.86,227.7 -221.7,321.89l0.05 0.01z"/>
   <path class="fil0" d="M9844.69 2105.96l0 -295.62c166.53,38.8 152.58,96.79 152.58,181.2 0,38.99 -70.92,107.64 -152.58,114.43l0 -0.02zm-295.63 -629.4c0,-64.37 68.73,-118.42 133.51,-133.51l0 267.03c-64.79,-15.1 -133.51,-69.14 -133.51,-133.51l0 -0.01zm133.52 -295.62c-71.76,5.98 -144.14,49.06 -192.93,83.61 -104.78,74.17 -146.88,296.4 -0.43,424.47 32.49,28.41 138.85,81.96 193.38,83.19l0 333.78c-140.46,-32.7 -103,-153.13 -237.44,-84.85 -66.25,33.65 -38.7,78.39 4.71,126.87 49.01,54.75 159.53,114.03 232.73,120.09 0,79.16 -38.13,168.42 152.58,123.98 4.86,-58.56 9.54,-27.69 9.54,-123.98 105,-2.33 238.48,-85.2 283.17,-174.59 75.66,-151.35 26.81,-338.94 -162.82,-413.04 -25.16,-9.84 -94.98,-30.13 -120.34,-32.24l0 -295.62c76.8,6.38 76.58,53.58 124.24,77.16 71.6,35.41 253.89,-97.99 -44.95,-223.22 -28.92,-12.13 -55.51,-14.17 -79.3,-25.6 0,-131.71 -5.62,-114.43 -123.98,-114.43 -51.02,0 -38.13,63.2 -38.13,114.43l-0.01 -0.01z"/>
  </g>
 </g>
</svg>
